<svg width="308" height="76" viewBox="0 0 308 76" fill="none" xmlns="http://www.w3.org/2000/svg">
<path fill-rule="evenodd" clip-rule="evenodd" d="M27.714 74.722L26.4314 74.3415C19.8818 72.14 14.0518 68.1997 9.56347 62.9409C5.0751 57.6821 2.09664 51.3021 0.945808 44.4813C-0.205021 37.6606 0.514943 30.655 3.0289 24.2118C5.54286 17.7686 9.75651 12.1295 15.2204 7.89605C21.7735 2.81836 29.8148 0.0434937 38.1009 0.000507061C46.3871 -0.0424796 54.4567 2.6488 61.062 7.65824C39.2575 17.9794 31.9419 23.8296 36.6448 32.7239C29.3766 38.6693 21.7285 46.755 20.6834 57.9323C20.1133 63.9728 22.6786 69.6328 27.714 74.722ZM24.3412 41.0474C29.5667 38.7168 37.5949 28.4432 13.1302 13.9365C10.6125 39.0973 15.3154 44.6147 22.6311 42.0938C24.9588 29.2994 14.8404 16.5049 14.8404 16.5049C14.8404 16.5049 25.3388 27.1115 24.3412 41.0474ZM56.6441 15.5537C56.6441 15.5537 52.0362 24.7333 39.2575 34.9594C46.4782 40.0486 61.062 38.051 61.157 7.5631C67.0664 12.002 71.5614 18.0634 74.0964 25.011C76.6313 31.9587 77.097 39.4938 75.4369 46.7013C73.7768 53.9089 70.0624 60.4789 64.7447 65.6134C59.427 70.7479 52.7347 74.2262 45.4806 75.6257C42.3506 76.2736 39.1048 76.0778 36.0751 75.0583C33.0455 74.0388 30.3404 72.2321 28.2366 69.823C26.1229 67.4007 24.6813 64.4653 24.0561 61.3102C23.4309 58.1552 23.6439 54.891 24.6737 51.8442C24.8224 51.3531 25.0132 50.8757 25.2438 50.4173C28.9016 42.1414 36.5498 34.9594 41.2052 31.3922C52.4162 22.9735 56.6441 15.5537 56.6441 15.5537ZM29.0441 50.8311C26.5739 56.4911 37.4524 67.3355 65.3373 55.4448C44.103 35.8012 32.7494 44.648 29.9942 48.5006C40.2551 47.692 60.0644 54.6362 60.0644 54.6362C60.0644 54.6362 31.5143 47.4542 29.0441 50.8311V50.8311Z" fill="#009688"/>
<path d="M125.405 29.1522C125.405 31.5416 124.829 33.7816 123.677 35.8722C122.567 37.9629 120.797 39.6482 118.365 40.9282C115.975 42.2082 112.946 42.8482 109.277 42.8482H101.789V60.0002H92.8286V15.3282H109.277C112.733 15.3282 115.677 15.9256 118.109 17.1202C120.541 18.3149 122.354 19.9576 123.549 22.0482C124.786 24.1389 125.405 26.5069 125.405 29.1522ZM108.893 35.6162C111.367 35.6162 113.202 35.0616 114.397 33.9522C115.591 32.8002 116.189 31.2002 116.189 29.1522C116.189 24.8002 113.757 22.6242 108.893 22.6242H101.789V35.6162H108.893Z" fill="#1C1C1C"/>
<path d="M140.726 12.6402V60.0002H131.766V12.6402H140.726Z" fill="#1C1C1C"/>
<path d="M147.275 42.1442C147.275 38.5602 147.979 35.3816 149.387 32.6082C150.837 29.8349 152.779 27.7016 155.211 26.2082C157.685 24.7149 160.437 23.9682 163.467 23.9682C166.112 23.9682 168.416 24.5016 170.379 25.5682C172.384 26.6349 173.984 27.9789 175.179 29.6002V24.5442H184.203V60.0002H175.179V54.8162C174.027 56.4802 172.427 57.8669 170.379 58.9762C168.373 60.0429 166.048 60.5762 163.403 60.5762C160.416 60.5762 157.685 59.8082 155.211 58.2722C152.779 56.7362 150.837 54.5816 149.387 51.8082C147.979 48.9922 147.275 45.7709 147.275 42.1442ZM175.179 42.2722C175.179 40.0962 174.752 38.2402 173.899 36.7042C173.045 35.1256 171.893 33.9309 170.443 33.1202C168.992 32.2669 167.435 31.8402 165.771 31.8402C164.107 31.8402 162.571 32.2456 161.163 33.0562C159.755 33.8669 158.603 35.0616 157.707 36.6402C156.853 38.1762 156.427 40.0109 156.427 42.1442C156.427 44.2776 156.853 46.1549 157.707 47.7762C158.603 49.3549 159.755 50.5709 161.163 51.4242C162.613 52.2776 164.149 52.7042 165.771 52.7042C167.435 52.7042 168.992 52.2989 170.443 51.4882C171.893 50.6349 173.045 49.4402 173.899 47.9042C174.752 46.3256 175.179 44.4482 175.179 42.2722Z" fill="#1C1C1C"/>
<path d="M212.602 24.0322C216.826 24.0322 220.239 25.3762 222.842 28.0642C225.444 30.7096 226.746 34.4216 226.746 39.2002V60.0002H217.786V40.4162C217.786 37.6002 217.082 35.4456 215.674 33.9522C214.266 32.4162 212.346 31.6482 209.914 31.6482C207.439 31.6482 205.476 32.4162 204.026 33.9522C202.618 35.4456 201.914 37.6002 201.914 40.4162V60.0002H192.954V24.5442H201.914V28.9602C203.108 27.4242 204.623 26.2296 206.458 25.3762C208.335 24.4802 210.383 24.0322 212.602 24.0322Z" fill="#1C1C1C"/>
<path d="M245.698 31.9042V49.0562C245.698 50.2509 245.975 51.1256 246.53 51.6802C247.127 52.1922 248.109 52.4482 249.474 52.4482H253.634V60.0002H248.002C240.45 60.0002 236.674 56.3309 236.674 48.9922V31.9042H232.45V24.5442H236.674V15.7762H245.698V24.5442H253.634V31.9042H245.698Z" fill="#1C1C1C"/>
<path d="M264.623 20.3202C263.044 20.3202 261.721 19.8296 260.655 18.8482C259.631 17.8242 259.119 16.5656 259.119 15.0722C259.119 13.5789 259.631 12.3416 260.655 11.3602C261.721 10.3362 263.044 9.82422 264.623 9.82422C266.201 9.82422 267.503 10.3362 268.527 11.3602C269.593 12.3416 270.127 13.5789 270.127 15.0722C270.127 16.5656 269.593 17.8242 268.527 18.8482C267.503 19.8296 266.201 20.3202 264.623 20.3202ZM269.039 24.5442V60.0002H260.079V24.5442H269.039Z" fill="#1C1C1C"/>
<path d="M297.475 60.0002L290.179 48.9922L283.715 60.0002H274.115L285.699 42.2082L273.987 24.5442H284.099L291.331 35.4882L297.859 24.5442H307.459L295.811 42.2082L307.587 60.0002H297.475Z" fill="#1C1C1C"/>
</svg>
